<mxfile host="app.diagrams.net" modified="2023-03-26T08:05:52.440Z" agent="Mozilla/5.0 (X11; Linux x86_64) AppleWebKit/537.36 (KHTML, like Gecko) Chrome/110.0.0.0 Safari/537.36" etag="G_3GxVL3QuiChezu8L8A" version="21.1.1" type="github">
  <diagram name="第 1 页" id="FvOjQQNea8EOxkawRLZ-">
    <mxGraphModel dx="934" dy="1478" grid="1" gridSize="10" guides="1" tooltips="1" connect="1" arrows="1" fold="1" page="1" pageScale="1" pageWidth="3300" pageHeight="4681" math="0" shadow="0">
      <root>
        <mxCell id="0" />
        <mxCell id="1" parent="0" />
        <mxCell id="tDl_KvokEJC_1A1ImUrF-23" value="" style="edgeStyle=orthogonalEdgeStyle;rounded=0;orthogonalLoop=1;jettySize=auto;html=1;" edge="1" parent="1" source="tDl_KvokEJC_1A1ImUrF-3">
          <mxGeometry relative="1" as="geometry">
            <mxPoint x="754.9999999999998" y="950" as="targetPoint" />
          </mxGeometry>
        </mxCell>
        <mxCell id="tDl_KvokEJC_1A1ImUrF-3" value="&lt;font style=&quot;font-size: 24px;&quot;&gt;发送方&lt;br&gt;等待数据发送状态&lt;/font&gt;" style="ellipse;whiteSpace=wrap;html=1;" vertex="1" parent="1">
          <mxGeometry x="650" y="690" width="210" height="140" as="geometry" />
        </mxCell>
        <mxCell id="tDl_KvokEJC_1A1ImUrF-4" value="&lt;font style=&quot;font-size: 24px;&quot;&gt;接收方&lt;br&gt;等待数据接收状态&lt;/font&gt;" style="ellipse;whiteSpace=wrap;html=1;" vertex="1" parent="1">
          <mxGeometry x="1100" y="690" width="210" height="140" as="geometry" />
        </mxCell>
        <mxCell id="tDl_KvokEJC_1A1ImUrF-5" value="&lt;font style=&quot;font-size: 24px;&quot;&gt;发送方&lt;br&gt;等待确认状态&lt;/font&gt;" style="ellipse;whiteSpace=wrap;html=1;" vertex="1" parent="1">
          <mxGeometry x="650" y="950" width="210" height="140" as="geometry" />
        </mxCell>
        <mxCell id="tDl_KvokEJC_1A1ImUrF-6" value="&lt;font style=&quot;font-size: 24px;&quot;&gt;接收方&lt;br&gt;发送确认状态&lt;/font&gt;" style="ellipse;whiteSpace=wrap;html=1;" vertex="1" parent="1">
          <mxGeometry x="1110" y="950" width="210" height="140" as="geometry" />
        </mxCell>
        <mxCell id="tDl_KvokEJC_1A1ImUrF-21" value="&lt;font style=&quot;font-size: 24px;&quot;&gt;Date&lt;/font&gt;" style="text;html=1;align=center;verticalAlign=middle;resizable=0;points=[];autosize=1;strokeColor=none;fillColor=none;" vertex="1" parent="1">
          <mxGeometry x="865" y="710" width="70" height="40" as="geometry" />
        </mxCell>
        <mxCell id="tDl_KvokEJC_1A1ImUrF-24" value="" style="endArrow=classic;html=1;rounded=0;entryX=0;entryY=0.5;entryDx=0;entryDy=0;" edge="1" parent="1" target="tDl_KvokEJC_1A1ImUrF-4">
          <mxGeometry width="50" height="50" relative="1" as="geometry">
            <mxPoint x="860" y="760" as="sourcePoint" />
            <mxPoint x="910" y="710" as="targetPoint" />
          </mxGeometry>
        </mxCell>
        <mxCell id="tDl_KvokEJC_1A1ImUrF-25" value="" style="endArrow=classic;html=1;rounded=0;entryX=0.5;entryY=0;entryDx=0;entryDy=0;" edge="1" parent="1" target="tDl_KvokEJC_1A1ImUrF-6">
          <mxGeometry width="50" height="50" relative="1" as="geometry">
            <mxPoint x="1210" y="830" as="sourcePoint" />
            <mxPoint x="1260" y="780" as="targetPoint" />
          </mxGeometry>
        </mxCell>
        <mxCell id="tDl_KvokEJC_1A1ImUrF-27" value="&lt;font style=&quot;font-size: 24px;&quot;&gt;发送ACK&lt;/font&gt;" style="text;html=1;align=center;verticalAlign=middle;resizable=0;points=[];autosize=1;strokeColor=none;fillColor=none;" vertex="1" parent="1">
          <mxGeometry x="930" y="970" width="120" height="40" as="geometry" />
        </mxCell>
        <mxCell id="tDl_KvokEJC_1A1ImUrF-28" value="" style="endArrow=classic;html=1;rounded=0;entryX=1;entryY=0.5;entryDx=0;entryDy=0;" edge="1" parent="1" target="tDl_KvokEJC_1A1ImUrF-5">
          <mxGeometry width="50" height="50" relative="1" as="geometry">
            <mxPoint x="1110" y="1020" as="sourcePoint" />
            <mxPoint x="1160" y="970" as="targetPoint" />
          </mxGeometry>
        </mxCell>
        <mxCell id="tDl_KvokEJC_1A1ImUrF-31" value="" style="endArrow=classic;html=1;rounded=0;entryX=1;entryY=1;entryDx=0;entryDy=0;exitX=1;exitY=0;exitDx=0;exitDy=0;" edge="1" parent="1" source="tDl_KvokEJC_1A1ImUrF-5" target="tDl_KvokEJC_1A1ImUrF-3">
          <mxGeometry width="50" height="50" relative="1" as="geometry">
            <mxPoint x="660" y="990" as="sourcePoint" />
            <mxPoint x="710" y="940" as="targetPoint" />
          </mxGeometry>
        </mxCell>
        <mxCell id="tDl_KvokEJC_1A1ImUrF-32" value="&lt;font style=&quot;font-size: 24px;&quot;&gt;接收到ACK&lt;/font&gt;" style="text;html=1;align=center;verticalAlign=middle;resizable=0;points=[];autosize=1;strokeColor=none;fillColor=none;" vertex="1" parent="1">
          <mxGeometry x="830" y="870" width="140" height="40" as="geometry" />
        </mxCell>
        <mxCell id="tDl_KvokEJC_1A1ImUrF-33" value="&lt;font style=&quot;font-size: 24px;&quot;&gt;发送方&lt;br&gt;等待确认状态&lt;/font&gt;" style="ellipse;whiteSpace=wrap;html=1;" vertex="1" parent="1">
          <mxGeometry x="660" y="450" width="180" height="120" as="geometry" />
        </mxCell>
        <mxCell id="tDl_KvokEJC_1A1ImUrF-41" value="" style="endArrow=classic;html=1;rounded=0;entryX=1;entryY=1;entryDx=0;entryDy=0;" edge="1" parent="1" target="tDl_KvokEJC_1A1ImUrF-33">
          <mxGeometry width="50" height="50" relative="1" as="geometry">
            <mxPoint x="1130" y="710" as="sourcePoint" />
            <mxPoint x="1180" y="660" as="targetPoint" />
          </mxGeometry>
        </mxCell>
        <mxCell id="tDl_KvokEJC_1A1ImUrF-42" value="&lt;font style=&quot;font-size: 24px;&quot;&gt;NAK&lt;/font&gt;" style="text;html=1;align=center;verticalAlign=middle;resizable=0;points=[];autosize=1;strokeColor=none;fillColor=none;" vertex="1" parent="1">
          <mxGeometry x="935" y="580" width="70" height="40" as="geometry" />
        </mxCell>
        <mxCell id="tDl_KvokEJC_1A1ImUrF-43" value="" style="endArrow=classic;html=1;rounded=0;entryX=0.5;entryY=0;entryDx=0;entryDy=0;" edge="1" parent="1" target="tDl_KvokEJC_1A1ImUrF-3">
          <mxGeometry width="50" height="50" relative="1" as="geometry">
            <mxPoint x="750" y="570" as="sourcePoint" />
            <mxPoint x="800" y="520" as="targetPoint" />
          </mxGeometry>
        </mxCell>
        <mxCell id="tDl_KvokEJC_1A1ImUrF-44" value="&lt;font style=&quot;font-size: 24px;&quot;&gt;超时重传或NAK重传&lt;/font&gt;" style="text;html=1;align=center;verticalAlign=middle;resizable=0;points=[];autosize=1;strokeColor=none;fillColor=none;" vertex="1" parent="1">
          <mxGeometry x="640" y="610" width="240" height="40" as="geometry" />
        </mxCell>
        <mxCell id="tDl_KvokEJC_1A1ImUrF-45" value="" style="endArrow=classic;html=1;rounded=0;entryX=1;entryY=1;entryDx=0;entryDy=0;" edge="1" parent="1" target="tDl_KvokEJC_1A1ImUrF-4">
          <mxGeometry width="50" height="50" relative="1" as="geometry">
            <mxPoint x="1290" y="970" as="sourcePoint" />
            <mxPoint x="1340" y="920" as="targetPoint" />
          </mxGeometry>
        </mxCell>
        <mxCell id="tDl_KvokEJC_1A1ImUrF-47" value="" style="shape=flexArrow;endArrow=classic;html=1;rounded=0;" edge="1" parent="1">
          <mxGeometry width="50" height="50" relative="1" as="geometry">
            <mxPoint x="550" y="760" as="sourcePoint" />
            <mxPoint x="650" y="760" as="targetPoint" />
          </mxGeometry>
        </mxCell>
        <mxCell id="tDl_KvokEJC_1A1ImUrF-48" value="&lt;font style=&quot;font-size: 24px;&quot;&gt;Date&lt;/font&gt;" style="text;html=1;align=center;verticalAlign=middle;resizable=0;points=[];autosize=1;strokeColor=none;fillColor=none;" vertex="1" parent="1">
          <mxGeometry x="525" y="710" width="70" height="40" as="geometry" />
        </mxCell>
      </root>
    </mxGraphModel>
  </diagram>
</mxfile>
